<svg width="40" height="40" viewBox="0 0 40 40" fill="none" xmlns="http://www.w3.org/2000/svg">
<mask id="mask0_1285_2358" style="mask-type:alpha" maskUnits="userSpaceOnUse" x="0" y="0" width="40" height="40">
<rect width="40" height="40" fill="#D9D9D9"/>
</mask>
<g mask="url(#mask0_1285_2358)">
<path d="M8.60865 33.3333V30.5554H11.192L14.6224 19.2083C14.8077 18.6158 15.1434 18.1367 15.6295 17.7708C16.1156 17.405 16.6642 17.2221 17.2753 17.2221H22.7195C23.3306 17.2221 23.8792 17.405 24.3653 17.7708C24.8514 18.1367 25.1871 18.6158 25.3724 19.2083L28.8028 30.5554H31.3861V33.3333H8.60865ZM14.1361 30.5554H25.8586L22.692 20H17.3028L14.1361 30.5554ZM18.6086 12.7779V5H21.3861V12.7779H18.6086ZM28.442 16.875L26.4557 14.8888L31.9836 9.40292L33.9278 11.3471L28.442 16.875ZM30.5528 24.7221V21.9446H38.3307V24.7221H30.5528ZM11.5528 16.875L6.06698 11.3471L8.01115 9.40292L13.5391 14.8888L11.5528 16.875ZM1.66406 24.7221V21.9446H9.44198V24.7221H1.66406Z" fill="white"/>
</g>
</svg>
