<svg width="40" height="40" viewBox="0 0 40 40" fill="none" xmlns="http://www.w3.org/2000/svg">
<mask id="mask0_1285_2316" style="mask-type:alpha" maskUnits="userSpaceOnUse" x="0" y="0" width="40" height="40">
<rect width="40" height="40" fill="#D9D9D9"/>
</mask>
<g mask="url(#mask0_1285_2316)">
<path d="M6.2474 15.0253C5.8774 15.0253 5.56726 14.8886 5.31698 14.6153C5.06698 14.3423 4.94198 14.0159 4.94198 13.6361C4.94198 13.2567 5.06698 12.9303 5.31698 12.657C5.56726 12.3839 5.8774 12.2474 6.2474 12.2474H12.0528C12.8245 12.2474 13.485 12.5182 14.0345 13.0599C14.5839 13.6016 14.9049 14.2567 14.9974 15.0253H6.2474ZM9.71615 30.5528C11.1814 30.5528 12.428 30.04 13.4557 29.0145C14.4835 27.9889 14.9974 26.7436 14.9974 25.2786C14.9974 23.8134 14.4846 22.5668 13.4591 21.5391C12.4335 20.5113 11.1881 19.9974 9.72281 19.9974C8.25781 19.9974 7.01142 20.5102 5.98365 21.5357C4.95587 22.5613 4.44198 23.8067 4.44198 25.272C4.44198 26.737 4.95476 27.9834 5.98031 29.0111C7.00587 30.0389 8.25115 30.5528 9.71615 30.5528ZM32.6316 30.5528C33.4402 30.5528 34.1292 30.2698 34.6986 29.7036C35.2681 29.1375 35.5528 28.45 35.5528 27.6411C35.5528 26.8323 35.2698 26.1431 34.7036 25.5736C34.1375 25.0042 33.45 24.7195 32.6411 24.7195C31.8323 24.7195 31.1431 25.0027 30.5736 25.5691C30.0042 26.1352 29.7195 26.8227 29.7195 27.6316C29.7195 28.4402 30.0027 29.1292 30.5691 29.6986C31.1352 30.2681 31.8227 30.5528 32.6316 30.5528ZM9.72281 28.0528C8.95226 28.0528 8.29615 27.7831 7.75448 27.2436C7.21281 26.7042 6.94198 26.0492 6.94198 25.2786C6.94198 24.5078 7.2117 23.8516 7.75115 23.3099C8.29059 22.7682 8.94559 22.4974 9.71615 22.4974C10.487 22.4974 11.1432 22.7671 11.6849 23.3066C12.2266 23.846 12.4974 24.5011 12.4974 25.272C12.4974 26.0425 12.2277 26.6986 11.6882 27.2403C11.1488 27.782 10.4936 28.0528 9.72281 28.0528ZM33.6086 22.0111C34.2011 22.15 34.6918 22.3145 35.0807 22.5045C35.4696 22.6942 35.9048 22.9881 36.3861 23.3861V12.8028C36.3861 12.0159 36.12 11.3561 35.5878 10.8236C35.0553 10.2914 34.3956 10.0253 33.6086 10.0253H22.5528L20.6086 8.05281L23.1086 5.55281L22.2195 4.66406L16.3307 10.5528L17.2474 11.4695L19.7195 8.9974L21.6641 10.9041V15.0807C21.6641 16.158 21.2914 17.08 20.5461 17.847C19.8006 18.6139 18.8861 18.9974 17.8028 18.9974H14.7611C15.2889 19.4141 15.7056 19.8261 16.0111 20.2336C16.3167 20.6409 16.6455 21.1548 16.9974 21.7753H17.8028C19.6178 21.7753 21.1781 21.1132 22.4836 19.7891C23.7892 18.4649 24.442 16.8955 24.442 15.0807V12.8028H33.6086V22.0111ZM27.0391 26.6641C27.2057 26.0066 27.3886 25.4857 27.5878 25.1016C27.7867 24.7174 28.0806 24.3031 28.4695 23.8586H17.6641C17.7382 24.4048 17.7753 24.8723 17.7753 25.2611C17.7753 25.65 17.7382 26.1177 17.6641 26.6641H27.0391ZM32.6503 33.3307C31.067 33.3307 29.7198 32.783 28.6086 31.6874C27.4975 30.5918 26.942 29.2692 26.942 27.7195C26.942 26.1239 27.506 24.7621 28.6341 23.6341C29.7621 22.506 31.1239 21.942 32.7195 21.942C34.2692 21.942 35.5918 22.4978 36.6874 23.6095C37.783 24.7211 38.3307 26.0634 38.3307 27.6361C38.3307 29.2289 37.7798 30.5761 36.6778 31.6778C35.5761 32.7798 34.2336 33.3307 32.6503 33.3307ZM9.66406 33.3307C7.43267 33.3307 5.54142 32.5453 3.99031 30.9745C2.43948 29.4036 1.66406 27.5039 1.66406 25.2753C1.66406 23.0464 2.44878 21.1466 4.01823 19.5757C5.58767 18.0049 7.48712 17.2195 9.71656 17.2195C11.9463 17.2195 13.8468 18.0052 15.4182 19.5766C16.9896 21.148 17.7753 23.0485 17.7753 25.2782C17.7753 27.5077 16.9906 29.4071 15.4211 30.9766C13.8517 32.546 11.9327 33.3307 9.66406 33.3307Z" fill="white"/>
</g>
</svg>
