<svg width="40" height="40" viewBox="0 0 40 40" fill="none" xmlns="http://www.w3.org/2000/svg">
<mask id="mask0_1285_2346" style="mask-type:alpha" maskUnits="userSpaceOnUse" x="0" y="0" width="40" height="40">
<rect width="40" height="40" fill="#D9D9D9"/>
</mask>
<g mask="url(#mask0_1285_2346)">
<path d="M6.66406 35V18.6529L3.33073 21.1946L1.66406 18.9721L19.9974 5L38.3307 19L36.6641 21.1804L33.3307 18.6529V35H6.66406ZM9.44198 32.2221H30.5528V16.5279L19.9974 8.48625L9.44198 16.5279V32.2221ZM13.3307 25C12.8585 25 12.4627 24.8403 12.1432 24.5208C11.8238 24.2014 11.6641 23.8056 11.6641 23.3333C11.6641 22.8611 11.8238 22.4653 12.1432 22.1458C12.4627 21.8264 12.8585 21.6667 13.3307 21.6667C13.803 21.6667 14.1988 21.8264 14.5182 22.1458C14.8377 22.4653 14.9974 22.8611 14.9974 23.3333C14.9974 23.8056 14.8377 24.2014 14.5182 24.5208C14.1988 24.8403 13.803 25 13.3307 25ZM19.9974 25C19.5252 25 19.1293 24.8403 18.8099 24.5208C18.4905 24.2014 18.3307 23.8056 18.3307 23.3333C18.3307 22.8611 18.4905 22.4653 18.8099 22.1458C19.1293 21.8264 19.5252 21.6667 19.9974 21.6667C20.4696 21.6667 20.8655 21.8264 21.1849 22.1458C21.5043 22.4653 21.6641 22.8611 21.6641 23.3333C21.6641 23.8056 21.5043 24.2014 21.1849 24.5208C20.8655 24.8403 20.4696 25 19.9974 25ZM26.6641 25C26.1918 25 25.796 24.8403 25.4766 24.5208C25.1571 24.2014 24.9974 23.8056 24.9974 23.3333C24.9974 22.8611 25.1571 22.4653 25.4766 22.1458C25.796 21.8264 26.1918 21.6667 26.6641 21.6667C27.1363 21.6667 27.5321 21.8264 27.8516 22.1458C28.171 22.4653 28.3307 22.8611 28.3307 23.3333C28.3307 23.8056 28.171 24.2014 27.8516 24.5208C27.5321 24.8403 27.1363 25 26.6641 25Z" fill="white"/>
</g>
</svg>
