<svg width="40" height="40" viewBox="0 0 40 40" fill="none" xmlns="http://www.w3.org/2000/svg">
<mask id="mask0_1285_2334" style="mask-type:alpha" maskUnits="userSpaceOnUse" x="0" y="0" width="40" height="40">
<rect width="40" height="40" fill="#D9D9D9"/>
</mask>
<g mask="url(#mask0_1285_2334)">
<path d="M20.1224 31.4472C20.5299 31.4377 20.8517 31.3427 21.0878 31.1622C21.3239 30.9816 21.442 30.734 21.442 30.4193C21.442 30.0859 21.3216 29.8244 21.0807 29.6347C20.8399 29.4447 20.4973 29.3544 20.0528 29.3639C18.8956 29.3916 17.7011 29.0421 16.4695 28.3151C15.2381 27.5882 14.4557 26.2941 14.1224 24.433C14.0668 24.1647 13.9349 23.9472 13.7266 23.7805C13.5182 23.6139 13.2891 23.5305 13.0391 23.5305C12.7057 23.5305 12.4418 23.6577 12.2474 23.9122C12.053 24.1669 11.9881 24.4425 12.0528 24.7389C12.4881 27.1369 13.5159 28.8637 15.1361 29.9193C16.7567 30.9748 18.4188 31.4841 20.1224 31.4472ZM19.9974 36.6693C16.1918 36.6693 13.0182 35.3637 10.4766 32.7526C7.9349 30.1415 6.66406 26.8915 6.66406 23.0026C6.66406 20.2248 7.76823 17.204 9.97656 13.9401C12.1849 10.6762 15.5252 7.14149 19.9974 3.33594C24.4696 7.14149 27.8099 10.6762 30.0182 13.9401C32.2266 17.204 33.3307 20.2248 33.3307 23.0026C33.3307 26.8915 32.0599 30.1415 29.5182 32.7526C26.9766 35.3637 23.803 36.6693 19.9974 36.6693ZM19.9974 33.8914C23.0343 33.8914 25.5528 32.8566 27.5528 30.7872C29.5528 28.7177 30.5528 26.1229 30.5528 23.0026C30.5528 20.8637 29.657 18.4377 27.8653 15.7247C26.0736 13.0119 23.451 10.1139 19.9974 7.03052C16.5438 10.1139 13.9211 13.0119 12.1295 15.7247C10.3378 18.4377 9.44198 20.8637 9.44198 23.0026C9.44198 26.1229 10.442 28.7177 12.442 30.7872C14.442 32.8566 16.9605 33.8914 19.9974 33.8914Z" fill="white"/>
</g>
</svg>
