<svg width="257" height="257" viewBox="0 0 257 257" fill="none" xmlns="http://www.w3.org/2000/svg">
<mask id="path-1-inside-1_1117_2177" fill="white">
<path d="M241.25 189.578C227.611 214.712 205.968 234.571 179.756 246.003C153.544 257.434 124.264 259.785 96.5645 252.68C68.8646 245.575 44.331 229.423 26.857 206.787C9.38296 184.15 -0.030338 156.326 0.110941 127.73C0.252221 99.1335 9.93998 71.4037 27.6368 48.9408C45.3336 26.4779 70.0257 10.5689 97.7944 3.73834C125.563 -3.09218 154.818 -0.452858 180.916 11.2375C207.013 22.9278 228.459 42.9994 241.85 68.267L165.417 108.773C161.052 100.536 154.061 93.9927 145.553 90.1818C137.045 86.3709 127.509 85.5105 118.456 87.7372C109.404 89.9639 101.355 95.15 95.5858 102.473C89.8168 109.795 86.6587 118.835 86.6126 128.157C86.5666 137.479 89.6352 146.549 95.3315 153.929C101.028 161.308 109.026 166.573 118.055 168.889C127.085 171.205 136.63 170.439 145.175 166.713C153.72 162.986 160.775 156.512 165.221 148.319L241.25 189.578Z"/>
</mask>
<path d="M241.25 189.578C227.611 214.712 205.968 234.571 179.756 246.003C153.544 257.434 124.264 259.785 96.5645 252.68C68.8646 245.575 44.331 229.423 26.857 206.787C9.38296 184.15 -0.030338 156.326 0.110941 127.73C0.252221 99.1335 9.93998 71.4037 27.6368 48.9408C45.3336 26.4779 70.0257 10.5689 97.7944 3.73834C125.563 -3.09218 154.818 -0.452858 180.916 11.2375C207.013 22.9278 228.459 42.9994 241.85 68.267L165.417 108.773C161.052 100.536 154.061 93.9927 145.553 90.1818C137.045 86.3709 127.509 85.5105 118.456 87.7372C109.404 89.9639 101.355 95.15 95.5858 102.473C89.8168 109.795 86.6587 118.835 86.6126 128.157C86.5666 137.479 89.6352 146.549 95.3315 153.929C101.028 161.308 109.026 166.573 118.055 168.889C127.085 171.205 136.63 170.439 145.175 166.713C153.72 162.986 160.775 156.512 165.221 148.319L241.25 189.578Z" fill="#004AEE" stroke="white" stroke-width="36" mask="url(#path-1-inside-1_1117_2177)"/>
<mask id="path-2-inside-2_1117_2177" fill="white">
<path d="M37.59 219.091C14.8866 196.387 1.51766 165.998 0.12141 133.921C-1.27484 101.844 9.403 70.4089 30.0478 45.8186L94.7863 100.17C87.7388 108.564 84.0937 119.295 84.5703 130.245C85.047 141.196 89.6107 151.569 97.3609 159.32L37.59 219.091Z"/>
</mask>
<path d="M37.59 219.091C14.8866 196.387 1.51766 165.998 0.12141 133.921C-1.27484 101.844 9.403 70.4089 30.0478 45.8186L94.7863 100.17C87.7388 108.564 84.0937 119.295 84.5703 130.245C85.047 141.196 89.6107 151.569 97.3609 159.32L37.59 219.091Z" fill="#EA1D29" stroke="white" stroke-width="34" mask="url(#path-2-inside-2_1117_2177)"/>
<circle cx="128" cy="128" r="43" fill="#004AEE"/>
</svg>
